<svg xmlns="http://www.w3.org/2000/svg" width="27.999" height="27.999"><path data-name="Path 26" d="M20.133 19.937a2.769 2.769 0 0 0-3.912 0l-1.014 1.014a1.83 1.83 0 0 1-1.167.342c-.908 0-2.454-.464-4.662-2.672-2.128-2.128-2.626-3.638-2.669-4.53a1.889 1.889 0 0 1 .349-1.31l1-1a2.766 2.766 0 0 0 0-3.912l-1.904-1.91a2.769 2.769 0 0 0-3.912 0L1.228 6.973a.822.822 0 0 0-.056.062 6.68 6.68 0 0 0-1.171 4.213 11.4 11.4 0 0 0 1.274 4.733 23.879 23.879 0 0 0 4.613 6.13 23.877 23.877 0 0 0 6.13 4.613 11.4 11.4 0 0 0 4.733 1.272h.216a6.6 6.6 0 0 0 4-1.171.835.835 0 0 0 .062-.056l1.014-1.014a2.766 2.766 0 0 0 0-3.912Z" fill="#5ebf88"/><path data-name="Path 27" d="M20.809 0a7.191 7.191 0 0 0-2.907 13.768v1.879a.82.82 0 0 0 1.234.708l4.107-2.4A7.191 7.191 0 0 0 20.809 0Zm.82 8.01v.956a.82.82 0 1 1-1.641 0V8.01h-.956a.82.82 0 0 1 0-1.641h.956c0-1.409.367-1.776.82-1.776s.82.367.82 1.776c1.409 0 1.776.367 1.776.82s-.366.821-1.775.821Z" fill="#5ebf88"/></svg>