<svg xmlns="http://www.w3.org/2000/svg" width="64" height="64"><defs><filter id="a" x="6" y="10" width="51.999" height="51.994" filterUnits="userSpaceOnUse"><feOffset dy="4"/><feGaussianBlur stdDeviation="4" result="blur"/><feFlood flood-color="#005182" flood-opacity=".561"/><feComposite operator="in" in2="blur"/><feComposite in="SourceGraphic"/></filter></defs><g data-name="Group 19493"><path data-name="Path 72551" d="M22.4 64h19.2c16 0 22.4-6.4 22.4-22.4V22.4C64 6.4 57.6 0 41.6 0H22.4C6.4 0 0 6.4 0 22.4v19.2C0 57.6 6.4 64 22.4 64Z" fill="#0073b8"/><g filter="url(#a)"><path data-name="Union 6" d="M34.024 45.842a42.704 42.704 0 0 1-1.684-1.118.45.45 0 0 0-.606.007c-.521.367-1.058.711-1.591 1.06a.859.859 0 0 1-1.428-.71c-.024-1.656-.009-3.314-.007-4.97 0-.079-.019-.191.075-.214s.151.085.214.147a4.322 4.322 0 0 0 5.737.259c.148-.118.28-.259.421-.387.045-.041.085-.119.152-.1.084.027.067.12.067.189v4.917a1.306 1.306 0 0 1-.109.612.822.822 0 0 1-.74.458.935.935 0 0 1-.501-.15Zm-2.02-6.142a2.8 2.8 0 0 1-2.762-2.779 2.8 2.8 0 0 1 2.78-2.761 2.8 2.8 0 0 1 2.759 2.779 2.8 2.8 0 0 1-2.768 2.76Zm-14-.94V18h27.427a.973.973 0 0 1 .572.99c-.01 3.432-.005 6.866-.005 10.3v9.123a.822.822 0 0 1-.86.914q-4.6.007-9.2.006c-.245 0-.26-.071-.148-.266a4.259 4.259 0 0 0 .565-2.219 4.353 4.353 0 0 0-4.789-4.233 4.347 4.347 0 0 0-3.35 6.392c.172.322.172.323-.2.323-3.005 0-6.009-.006-9.013.005h-.006A.979.979 0 0 1 18 38.76Zm22.2-7.622a.832.832 0 0 0 .777-.807.835.835 0 0 0-.807-.78H23.976a1.286 1.286 0 0 0-.4.053.821.821 0 0 0-.565.733.82.82 0 0 0 .541.751 1.515 1.515 0 0 0 .512.062h15.822a3.183 3.183 0 0 0 .314-.011Zm-17.2-4.07c0 .487.4.8 1.039.8h15.9c.637 0 1.037-.31 1.037-.8s-.4-.8-1.037-.8h-15.9c-.643.003-1.043.312-1.043.801Zm12.179-4.122a.828.828 0 0 0 .878-.789.824.824 0 0 0-.865-.8q-3.206-.008-6.41 0a.824.824 0 0 0-.864.8.836.836 0 0 0 .852.789h3.217c1.059.004 2.124.009 3.187.001Z" fill="#fff"/></g></g></svg>