<svg xmlns="http://www.w3.org/2000/svg" width="64" height="68.071"><defs><filter id="a" x="1" y="9" width="58.888" height="36.962" filterUnits="userSpaceOnUse"><feOffset dy="4"/><feGaussianBlur stdDeviation="4" result="blur"/><feFlood flood-color="#b70c30" flood-opacity=".588"/><feComposite operator="in" in2="blur"/><feComposite in="SourceGraphic"/></filter><filter id="b" x="5.468" y="20.291" width="49.539" height="36.538" filterUnits="userSpaceOnUse"><feOffset dy="4"/><feGaussianBlur stdDeviation="4" result="blur-2"/><feFlood flood-color="#b70c30" flood-opacity=".588"/><feComposite operator="in" in2="blur-2"/><feComposite in="SourceGraphic"/></filter><filter id="c" x="35.677" y="17.654" width="26.889" height="36.518" filterUnits="userSpaceOnUse"><feOffset dy="4"/><feGaussianBlur stdDeviation="4" result="blur-3"/><feFlood flood-color="#b70c30" flood-opacity=".588"/><feComposite operator="in" in2="blur-3"/><feComposite in="SourceGraphic"/></filter><filter id="d" x="35.682" y="39.628" width="26.878" height="28.443" filterUnits="userSpaceOnUse"><feOffset dy="4"/><feGaussianBlur stdDeviation="4" result="blur-4"/><feFlood flood-color="#b70c30" flood-opacity=".588"/><feComposite operator="in" in2="blur-4"/><feComposite in="SourceGraphic"/></filter><filter id="e" x="35.012" y="32.791" width="28.16" height="28.184" filterUnits="userSpaceOnUse"><feOffset dy="4"/><feGaussianBlur stdDeviation="4" result="blur-5"/><feFlood flood-color="#b70c30" flood-opacity=".588"/><feComposite operator="in" in2="blur-5"/><feComposite in="SourceGraphic"/></filter></defs><g data-name="Group 19498"><g data-name="Group 19081"><path data-name="Path 48368" d="M22.4 64h19.2c16 0 22.4-6.4 22.4-22.4V22.4C64 6.4 57.6 0 41.6 0H22.4C6.4 0 0 6.4 0 22.4v19.2C0 57.6 6.4 64 22.4 64Z" fill="#ea1945"/><g data-name="Group 19079"><g filter="url(#a)" transform="translate(-.004 -.005)"><path data-name="Path 48063" d="M13 23.318a27.52 27.52 0 0 1 2.613-.987q7.254-2.641 14.513-5.265a.937.937 0 0 1 .683 0q8.237 2.989 16.475 5.975c.229.083.6.077.6.405.008.358-.374.35-.612.436q-8.292 3-16.588 5.992a1.393 1.393 0 0 1-1.037-.019q-8.09-3.013-16.189-6a1.134 1.134 0 0 1-.458-.238Z" fill="#fff"/></g><g filter="url(#b)" transform="translate(-.004 -.005)"><path data-name="Path 48064" d="M17.475 32.533v-3.881c0-.4.041-.423.405-.289 3.78 1.397 7.56 2.787 11.33 4.207a2.569 2.569 0 0 0 1.908.015c3.783-1.386 7.576-2.744 11.365-4.111.5-.179.52-.165.52.366 0 2.438-.009 4.877.007 7.315a1.688 1.688 0 0 1-.677 1.445 14.125 14.125 0 0 1-5.848 2.594 30.148 30.148 0 0 1-8.16.584 21.872 21.872 0 0 1-7.068-1.381 10.647 10.647 0 0 1-3.317-1.97 1.364 1.364 0 0 1-.469-1.088c.009-1.269 0-2.538 0-3.807" fill="#fff"/></g><g filter="url(#c)" transform="translate(-.004 -.005)"><path data-name="Path 48065" d="M50.549 31.94v5.82c0 .139.077.335-.088.4-.115.048-.195-.126-.286-.2a1.444 1.444 0 0 0-2.188.047c-.069.064-.124.192-.234.149s-.064-.175-.064-.268q0-5.484-.005-10.969a.4.4 0 0 1 .311-.433c.694-.237 1.381-.495 2.072-.74.461-.163.485-.147.486.336v5.857" fill="#fff"/></g><g filter="url(#d)" transform="translate(-.004 -.005)"><path data-name="Path 48066" d="M47.69 49.319v-1.453c0-.08-.033-.191.078-.223.078-.023.128.058.184.1s.131.114.2.168a1.365 1.365 0 0 0 2-.07c.095-.085.17-.27.319-.2s.08.245.081.376v2.347a2.649 2.649 0 0 1-.013.3 1.455 1.455 0 0 1-1.493 1.405 1.43 1.43 0 0 1-1.36-1.558v-1.192" fill="#fff"/></g><g filter="url(#e)" transform="translate(-.004 -.005)"><path data-name="Path 48067" d="M49.125 40.793a2.368 2.368 0 0 1 .213.172c.565.561 1.121 1.13 1.692 1.684.186.18.185.307 0 .488q-.87.844-1.715 1.714c-.176.181-.293.157-.457-.011q-.847-.868-1.714-1.715c-.172-.167-.181-.29-.006-.461.578-.565 1.145-1.141 1.718-1.711a.416.416 0 0 1 .271-.161" fill="#fff"/></g></g></g></g></svg>