<svg xmlns="http://www.w3.org/2000/svg" width="64" height="65.929"><defs><filter id="a" x="2.534" y="7" width="58.93" height="58.929" filterUnits="userSpaceOnUse"><feOffset dy="4"/><feGaussianBlur stdDeviation="4" result="blur"/><feFlood flood-color="#dc8c13" flood-opacity=".561"/><feComposite operator="in" in2="blur"/><feComposite in="SourceGraphic"/></filter></defs><g data-name="Group 19497"><path data-name="Path 72552" d="M22.4 64h19.2c16 0 22.4-6.4 22.4-22.4V22.4C64 6.4 57.6 0 41.6 0H22.4C6.4 0 0 6.4 0 22.4v19.2C0 57.6 6.4 64 22.4 64Z" fill="#f9a11b"/><g filter="url(#a)"><path data-name="Union 6" d="m24.209 49.93 3.07-6.14h3.7V25.2a5.046 5.046 0 0 0 1.023.1 5.068 5.068 0 0 0 1.023-.1v18.592h3.7l3.07 6.14Zm10.934-15.417v-1.025h14.326v1.025c0 2.829-3.209 7.163-7.164 7.163s-7.165-4.335-7.165-7.163Zm-20.6 0v-1.025H28.87v1.025c0 2.829-3.208 7.163-7.163 7.163s-7.167-4.335-7.167-7.163Zm30.871-3.072-3.105-5.174-3.1 5.174h-2.388l4-6.659-6.51-2.58a3.053 3.053 0 0 1-2.3 1.054 3.053 3.053 0 0 1-2.3-1.054l-6.511 2.58 4 6.659h-2.387l-3.1-5.174-3.1 5.174h-2.387l4.791-7.985 7.943-3.154c0-.039-.012-.077-.012-.116a3.062 3.062 0 0 1 2.047-2.881V15h2.047v2.3a3.063 3.063 0 0 1 2.045 2.881c0 .039-.009.077-.011.116l7.944 3.154 4.789 7.985Z" fill="#fff"/></g></g></svg>