<svg data-name="Group 19493" xmlns="http://www.w3.org/2000/svg" width="125.684" height="56"><defs><clipPath id="a"><path data-name="Rectangle 14475" fill="#f8a11a" d="M0 0h125.684v56H0z"/></clipPath></defs><path data-name="Path 479" d="M84.158 35.1h-.948l-4.848 11.095h2.408l.845-2.214h4.165l.886 2.214h2.388Zm-1.934 7.389 1.459-4.035 1.46 4.035Z" fill="#f8a11a"/><path data-name="Path 480" d="M100.174 35.241H90.112v1.72h3.862v9.235h2.16V36.96h4.039Z" fill="#f8a11a"/><path data-name="Path 481" d="M104.65 43.981h4.166l.887 2.214h2.549l-5.06-11.095h-.95l-4.845 11.095h2.407Zm2.072-5.527 1.46 4.035h-2.916Z" fill="#f8a11a"/><g data-name="Group 16888"><g data-name="Group 16887" clip-path="url(#a)" fill="#f8a11a"><path data-name="Path 482" d="M123.694 40.129a2.789 2.789 0 0 0 .637-1.769q0-3.224-4.636-3.227-.748 0-1.966.06c-.816.039-1.286.053-1.4.053v10.948h2.246v-4.58c.586.03 1.042.047 1.369.05l3.246 4.53h2.5l-3.6-4.942a3.44 3.44 0 0 0 1.614-1.125m-2.234-.459a4.258 4.258 0 0 1-1.978.344c-.207 0-.511-.01-.909-.041v-3.033a6.121 6.121 0 0 1 .731-.045 5.161 5.161 0 0 1 2.108.319 1.143 1.143 0 0 1 .671 1.123 1.375 1.375 0 0 1-.622 1.335"/><path data-name="Path 483" d="M68.392 46.388a8.357 8.357 0 0 0 .608.894 4.686 4.686 0 0 0 2.718 1.791 6.451 6.451 0 0 0 3.425-.276s-.614-1.569-.614-1.569a2.875 2.875 0 0 1-1.23.256 2.312 2.312 0 0 1-1.966-.975 5.006 5.006 0 0 0 3.014-1.578 5.934 5.934 0 0 0 1.521-4.159v-.007a5.777 5.777 0 0 0-1.543-4.28 5.952 5.952 0 0 0-4.4-1.538 5.249 5.249 0 0 0-4.063 1.662 5.932 5.932 0 0 0-1.521 4.156v.007a5.77 5.77 0 0 0 1.545 4.279 5.091 5.091 0 0 0 2.5 1.336m-.9-8.626a3.715 3.715 0 0 1 2.6-1.112h.023a3.624 3.624 0 0 1 2.648 1.2 4.638 4.638 0 0 1 .954 2.985 4.31 4.31 0 0 1-1.005 2.908 3.707 3.707 0 0 1-2.6 1.116h-.023a3.64 3.64 0 0 1-2.653-1.2 4.649 4.649 0 0 1-.956-2.986 4.33 4.33 0 0 1 1.005-2.912"/><path data-name="Path 484" d="M67.552 55.434a1.885 1.885 0 0 0 .562-1.382 1.912 1.912 0 0 0-.569-1.4 1.852 1.852 0 0 0-1.363-.573 1.951 1.951 0 0 0-1.688.975 1.616 1.616 0 0 0-.257.89 2.149 2.149 0 0 0 .555 1.473 1.947 1.947 0 0 0 2.76.015m-2.6-1.382a1.245 1.245 0 0 1 .354-.916 1.223 1.223 0 0 1 1.741.009 1.249 1.249 0 0 1 .358.9 1.235 1.235 0 0 1-.356.9 1.154 1.154 0 0 1-.86.365 1.215 1.215 0 0 1-.792-.282 1.19 1.19 0 0 1-.444-.978"/><path data-name="Path 485" d="M69.676 52.182v3.723h1.742v-.675h-1.033v-3.048Z"/><path data-name="Path 486" d="M74.278 55.905v-1.613l1.09-2.11h-.75l-.69 1.34-.7-1.34h-.758l1.094 2.11v1.613Z"/><path data-name="Path 487" d="m77.542 53.555.785 2.35h.623l.794-2.35.4 2.35h.685l-.626-3.723h-.689l-.871 2.6-.863-2.6h-.69l-.644 3.723h.686Z"/><path data-name="Path 488" d="M83.621 54.272a1.059 1.059 0 0 0 .553-.36 1.009 1.009 0 0 0 .2-.648 1.14 1.14 0 0 0-.155-.6.9.9 0 0 0-.426-.364 2.469 2.469 0 0 0-.88-.112h-.751v3.723h.707v-1.576a3.261 3.261 0 0 0 .748-.058m-.748-1.4h.2a.951.951 0 0 1 .448.074.34.34 0 0 1 .167.316.36.36 0 0 1-.059.21.321.321 0 0 1-.163.128 1.264 1.264 0 0 1-.369.037h-.227Z"/><path data-name="Rectangle 14471" d="M85.798 52.182h.703v3.723h-.703z"/><path data-name="Path 489" d="M90.705 55.844a2.678 2.678 0 0 0 .78-.558l-.482-.5a2.08 2.08 0 0 1-.562.42 1.365 1.365 0 0 1-.563.114 1.343 1.343 0 0 1-.659-.165 1.169 1.169 0 0 1-.459-.454 1.346 1.346 0 0 1-.16-.661 1.241 1.241 0 0 1 1.264-1.263 1.538 1.538 0 0 1 1.138.532l.5-.472a2.146 2.146 0 0 0-1.622-.747 2.019 2.019 0 0 0-1.011.264 1.848 1.848 0 0 0-.722.7 1.929 1.929 0 0 0-.252.989 1.9 1.9 0 0 0 .553 1.41 1.923 1.923 0 0 0 1.42.552 2.146 2.146 0 0 0 .84-.156"/><path data-name="Path 490" d="m96.259 52.182-1.434 3.723h.736l.3-.765h1.52l.292.765h.737l-1.433-3.723Zm-.135 2.262.5-1.278.5 1.278Z"/><path data-name="Path 491" d="M102.362 55.844a2.638 2.638 0 0 0 .781-.558l-.481-.5a2.061 2.061 0 0 1-.561.42 1.365 1.365 0 0 1-.562.114 1.33 1.33 0 0 1-.658-.165 1.167 1.167 0 0 1-.459-.454 1.331 1.331 0 0 1-.161-.661 1.242 1.242 0 0 1 1.265-1.263 1.538 1.538 0 0 1 1.137.532l.495-.472a2.108 2.108 0 0 0-.733-.553 2.153 2.153 0 0 0-.888-.194 2.024 2.024 0 0 0-1.01.264 1.84 1.84 0 0 0-.72.7 1.94 1.94 0 0 0 1.721 2.951 2.125 2.125 0 0 0 .837-.156"/><path data-name="Path 492" d="M104.255 55.906h.737l.3-.765h1.52l.291.765h.736l-1.432-3.723h-.72Zm2.3-1.457h-1l.5-1.278Z"/><path data-name="Path 493" d="M111.215 52.384a2.742 2.742 0 0 0-1.206-.2h-.839v3.723h.852a3.816 3.816 0 0 0 1.016-.092 1.393 1.393 0 0 0 .546-.327 1.7 1.7 0 0 0 .393-.6 2.29 2.29 0 0 0-.113-1.847 1.55 1.55 0 0 0-.65-.656m.05 2.345a.855.855 0 0 1-.357.376 1.651 1.651 0 0 1-.7.11h-.329v-2.347h.239a1.326 1.326 0 0 1 .959.294 1.232 1.232 0 0 1 .331.92 1.368 1.368 0 0 1-.139.648"/><path data-name="Path 494" d="M115.609 52.877v-.695h-2.031v3.723h2.031v-.7h-1.33v-.98h1.33v-.68h-1.33v-.673Z"/><path data-name="Path 495" d="M118.691 55.905h.625l.791-2.35.4 2.35h.686l-.625-3.723h-.691l-.871 2.6-.863-2.6h-.69l-.645 3.723h.692l.409-2.35Z"/><path data-name="Path 496" d="M124.08 55.905v-1.613l1.087-2.11h-.75l-.692 1.34-.694-1.34h-.762l1.095 2.11v1.613Z"/><path data-name="Path 497" d="M68.609 13.554a1.131 1.131 0 0 0 .334-.221 1.031 1.031 0 0 0 .309-.736 1.028 1.028 0 0 0-.084-.409 1.093 1.093 0 0 0-.226-.334 1.138 1.138 0 0 0-.334-.226 1.051 1.051 0 0 0-.408-.082 1.04 1.04 0 0 0-.408.082 1.065 1.065 0 0 0-.329.226 1.154 1.154 0 0 0-.222.334 1.02 1.02 0 0 0-.082.409 1.036 1.036 0 0 0 1.448.957"/><path data-name="Path 498" d="M71.409 13.554a1.135 1.135 0 0 0 .332-.221 1.024 1.024 0 0 0 .309-.736 1.028 1.028 0 0 0-.083-.409 1.1 1.1 0 0 0-.226-.334 1.142 1.142 0 0 0-.332-.226 1.059 1.059 0 0 0-.817 0 1.09 1.09 0 0 0-.33.226 1.169 1.169 0 0 0-.219.334 1.015 1.015 0 0 0-.084.409 1.038 1.038 0 0 0 1.45.957"/><path data-name="Path 499" d="M65.368 18.213a3.848 3.848 0 0 0-.8 1.048 2.812 2.812 0 0 0-.3 1.32 2.746 2.746 0 0 0 .3 1.34 2.784 2.784 0 0 0 .8.919 3.294 3.294 0 0 0 1.084.524 4.335 4.335 0 0 0 1.189.168 4.883 4.883 0 0 0 1.335-.187 5.675 5.675 0 0 0 1.385-.624 2.121 2.121 0 0 0 .242.563 1.514 1.514 0 0 0 .464.472 2.521 2.521 0 0 0 .76.325 4.328 4.328 0 0 0 1.116.123h6.12v-7.592h-1.769v5.825h-3.908a2.67 2.67 0 0 1-.678-.069.733.733 0 0 1-.585-.648 4.076 4.076 0 0 1-.043-.659v-6.078h-1.768v1.038l-1.178.334a14.92 14.92 0 0 0-1.321.448 11.459 11.459 0 0 0-1.312.6 5.428 5.428 0 0 0-1.133.806m3.157-.168a15.564 15.564 0 0 1 1.787-.441v3.621a4.056 4.056 0 0 1-1.055.491 4.448 4.448 0 0 1-1.282.176 3.467 3.467 0 0 1-.736-.078 2.133 2.133 0 0 1-.658-.255 1.42 1.42 0 0 1-.477-.472 1.353 1.353 0 0 1-.18-.725 1.539 1.539 0 0 1 .318-.954 3.038 3.038 0 0 1 .9-.761 6.91 6.91 0 0 1 1.385-.595"/><path data-name="Path 500" d="M77.311 27.559a1.046 1.046 0 0 0 0-.816 1.108 1.108 0 0 0-.226-.333 1.078 1.078 0 0 0-.336-.226 1.014 1.014 0 0 0-.407-.082 1.031 1.031 0 0 0-.407.082 1.019 1.019 0 0 0-.329.226 1.111 1.111 0 0 0-.22.333 1.038 1.038 0 0 0 1.363 1.366 1.1 1.1 0 0 0 .336-.221 1.035 1.035 0 0 0 .226-.329"/><path data-name="Path 501" d="M78.406 26.406a1.1 1.1 0 0 0-.221.334 1.033 1.033 0 0 0 .959 1.45 1.013 1.013 0 0 0 .406-.084 1.111 1.111 0 0 0 .335-.221 1.031 1.031 0 0 0 .226-1.145 1.066 1.066 0 0 0-.561-.559 1.029 1.029 0 0 0-1.143.226"/><path data-name="Path 502" d="M108.76 14.044a1.193 1.193 0 0 0 .335-.221 1.036 1.036 0 0 0 .219-.325.991.991 0 0 0 .086-.409.978.978 0 0 0-.086-.405 1.1 1.1 0 0 0-.223-.335 1.124 1.124 0 0 0-.335-.226 1.034 1.034 0 0 0-.814 0 1 1 0 0 0-.329.226 1.126 1.126 0 0 0-.222.335.988.988 0 0 0-.084.405 1.04 1.04 0 0 0 1.449.959"/><path data-name="Path 503" d="M105.239 24.205c.458 0 .926 0 1.4-.016s.942-.027 1.4-.053.9-.061 1.337-.1.834-.092 1.207-.158a13.94 13.94 0 0 0 1.743.247q.949.078 2.108.079h5.5V10.09h-1.768v12.347h-5.2c.057-.136.129-.3.21-.5a6.1 6.1 0 0 0 .229-.643 6.3 6.3 0 0 0 .183-.751 4.447 4.447 0 0 0 .072-.83 3.989 3.989 0 0 0-.225-1.351 3.115 3.115 0 0 0-.672-1.106 3.173 3.173 0 0 0-1.1-.745 3.858 3.858 0 0 0-1.507-.277 4.763 4.763 0 0 0-1.759.31 4 4 0 0 0-1.33.84 3.668 3.668 0 0 0-.839 1.233 3.754 3.754 0 0 0-.295 1.478 2.8 2.8 0 0 0 .06.55 3.046 3.046 0 0 0 .187.619 3.687 3.687 0 0 0 .312.608 2.2 2.2 0 0 0 .452.521l.01.04h-4.753v-1.676a7.282 7.282 0 0 0-.241-1.915 4.325 4.325 0 0 0-.755-1.541 3.547 3.547 0 0 0-1.317-1.033 4.549 4.549 0 0 0-1.929-.372 4.774 4.774 0 0 0-1.19.146 5.286 5.286 0 0 0-1.085.412 5.825 5.825 0 0 0-.977.63 8.886 8.886 0 0 0-.875.787V10.09h-1.767v10.245q-.316.58-.54 1.114a10.336 10.336 0 0 0-.363.987h-4.676v-5.824h-1.767v6.514a8.3 8.3 0 0 1-.1 1.335 2.182 2.182 0 0 1-1.369 1.744 6.245 6.245 0 0 1-1.675.416l.176 1.688a10.289 10.289 0 0 0 1.842-.416 4.224 4.224 0 0 0 1.373-.751 3.6 3.6 0 0 0 .924-1.194 5.786 5.786 0 0 0 .495-1.743h18.849Zm2.554-5.236a1.873 1.873 0 0 1 .511-.643 2.089 2.089 0 0 1 .712-.372 2.656 2.656 0 0 1 .8-.124 2.125 2.125 0 0 1 .775.142 1.932 1.932 0 0 1 .656.421 2.068 2.068 0 0 1 .457.694 2.44 2.44 0 0 1 .172.951 3.445 3.445 0 0 1-.079.742 5.084 5.084 0 0 1-.191.669 4.237 4.237 0 0 1-.251.566 3.8 3.8 0 0 1-.256.421h-.617a3.36 3.36 0 0 1-1.125-.183 2.786 2.786 0 0 1-.918-.516 2.4 2.4 0 0 1-.619-.8 2.343 2.343 0 0 1-.226-1.045 2.041 2.041 0 0 1 .2-.924m-7.357 3.467h-7.533a7.26 7.26 0 0 1 .384-1.081 8.756 8.756 0 0 1 .577-1.093 8.089 8.089 0 0 1 .752-1.012 5.968 5.968 0 0 1 .908-.84 4.349 4.349 0 0 1 1.051-.575 3.433 3.433 0 0 1 2.22-.048 2.027 2.027 0 0 1 .854.55 2.7 2.7 0 0 1 .574 1.026 5.118 5.118 0 0 1 .212 1.591Z"/><path data-name="Path 504" d="M111.152 14.128a1.018 1.018 0 0 0 .408-.084 1.156 1.156 0 0 0 .334-.221 1.026 1.026 0 0 0 .226-.329 1.014 1.014 0 0 0 .082-.409 1 1 0 0 0-.082-.405 1.064 1.064 0 0 0-.56-.561 1.031 1.031 0 0 0-1.145.226 1.149 1.149 0 0 0-.222.335 1.046 1.046 0 0 0-.082.405 1.023 1.023 0 0 0 1.041 1.043"/><path data-name="Rectangle 14472" d="M123.271 10.101h1.769v14.114h-1.769z"/><path data-name="Path 505" d="M67.073.941a.392.392 0 0 0-.318 0 .393.393 0 0 0-.129.087.434.434 0 0 0-.086.13.41.41 0 0 0 .085.446.389.389 0 0 0 .287.119.4.4 0 0 0 .16-.033.417.417 0 0 0 .129-.086.4.4 0 0 0 .089-.446.374.374 0 0 0-.089-.13.4.4 0 0 0-.129-.087"/><path data-name="Path 506" d="M65.981.941a.385.385 0 0 0-.16-.034.366.366 0 0 0-.156.034.347.347 0 0 0-.128.087.373.373 0 0 0-.088.13.413.413 0 0 0-.032.158.4.4 0 0 0 .4.407.4.4 0 0 0 .16-.033.434.434 0 0 0 .132-.086.409.409 0 0 0 .086-.129.392.392 0 0 0 0-.318.39.39 0 0 0-.086-.13.418.418 0 0 0-.132-.087"/><path data-name="Path 507" d="M70.15 7.364a.456.456 0 0 0 .131-.087.4.4 0 0 0 .089-.128.4.4 0 0 0-.089-.447.471.471 0 0 0-.131-.09.4.4 0 0 0-.157-.032.418.418 0 0 0-.161.032.422.422 0 0 0-.213.219.4.4 0 0 0 .374.564.429.429 0 0 0 .157-.032"/><path data-name="Path 508" d="M69.06 7.364a.419.419 0 0 0 .218-.215.4.4 0 0 0 0-.318.431.431 0 0 0-.088-.13.438.438 0 0 0-.13-.09.4.4 0 0 0-.16-.032.4.4 0 0 0-.157.032.446.446 0 0 0-.129.09.438.438 0 0 0-.085.13.388.388 0 0 0-.034.159.384.384 0 0 0 .118.288.39.39 0 0 0 .288.118.431.431 0 0 0 .16-.032"/><path data-name="Path 509" d="M72.372 7.364a.426.426 0 0 0 .129-.087.4.4 0 0 0 .089-.445.426.426 0 0 0-.089-.13.439.439 0 0 0-.129-.09.417.417 0 0 0-.16-.032.4.4 0 0 0-.157.032.39.39 0 0 0-.129.09.4.4 0 0 0-.087.13.388.388 0 0 0-.032.159.4.4 0 0 0 .406.405.447.447 0 0 0 .16-.032"/><path data-name="Path 510" d="M79.623 5.148h-1.072a2.24 2.24 0 0 1-.589-.067 1.282 1.282 0 0 1-.422-.2 1.472 1.472 0 0 0 .076-.447 1.639 1.639 0 0 0-.039-.348 1.823 1.823 0 0 0-.117-.363 1.933 1.933 0 0 0-.2-.34 1.412 1.412 0 0 0-.288-.29 1.31 1.31 0 0 0-.375-.2 1.479 1.479 0 0 0-.468-.071 1.422 1.422 0 0 0-.256.024 1.125 1.125 0 0 0-.294.1 1.58 1.58 0 0 0-.31.2 1.823 1.823 0 0 0-.308.337 3.031 3.031 0 0 0-.289.5 4.642 4.642 0 0 0-.25.708.55.55 0 0 1-.25.346.822.822 0 0 1-.421.109h-.223a2.293 2.293 0 0 1-.561-.06 1.236 1.236 0 0 1-.408-.178V2.886h-.689V4.72a.6.6 0 0 1-.07.326.223.223 0 0 1-.193.106h-.808a2.292 2.292 0 0 1-.561-.06 1.25 1.25 0 0 1-.408-.178V2.886h-.688V4.72a.6.6 0 0 1-.071.326.22.22 0 0 1-.193.106H67.84a1.026 1.026 0 0 1-.263-.027.278.278 0 0 1-.228-.255 1.627 1.627 0 0 1-.018-.254V2.248h-.688v.4c-.138.038-.29.081-.46.131s-.338.106-.513.174a4.5 4.5 0 0 0-.513.236 2.161 2.161 0 0 0-.441.313 1.541 1.541 0 0 0-.312.407 1.12 1.12 0 0 0-.119.516 1.092 1.092 0 0 0 .12.525 1.157 1.157 0 0 0 .311.358 1.341 1.341 0 0 0 .422.2 1.745 1.745 0 0 0 .463.063 1.944 1.944 0 0 0 .522-.072 2.19 2.19 0 0 0 .539-.246.865.865 0 0 0 .1.22.553.553 0 0 0 .182.184.923.923 0 0 0 .3.127 1.744 1.744 0 0 0 .434.048h1.35a.721.721 0 0 0 .4-.106.858.858 0 0 0 .256-.258 1.585 1.585 0 0 0 .449.26 1.835 1.835 0 0 0 .663.1h.958a.715.715 0 0 0 .4-.106.816.816 0 0 0 .256-.258 1.581 1.581 0 0 0 .452.26 1.816 1.816 0 0 0 .66.1h.342a1.407 1.407 0 0 0 .283-.026.79.79 0 0 0 .231-.089.753.753 0 0 0 .2-.161 1.29 1.29 0 0 0 .17-.251 1.526 1.526 0 0 0 .223.2 1.785 1.785 0 0 0 .311.183 2.018 2.018 0 0 0 .39.13 1.952 1.952 0 0 0 .465.052 1.452 1.452 0 0 0 .691-.134 1.467 1.467 0 0 0 .469-.38 1.558 1.558 0 0 0 .215.192 1.341 1.341 0 0 0 .268.158 1.513 1.513 0 0 0 .338.1 2.21 2.21 0 0 0 .428.039h1.767V.341h-.688Zm-12.976-.475a1.539 1.539 0 0 1-.412.191 1.7 1.7 0 0 1-.5.069 1.267 1.267 0 0 1-.287-.032.828.828 0 0 1-.257-.1.512.512 0 0 1-.185-.183.527.527 0 0 1-.072-.284.607.607 0 0 1 .124-.372 1.193 1.193 0 0 1 .351-.3 2.609 2.609 0 0 1 .54-.232 6.35 6.35 0 0 1 .7-.172Zm10.281.175a.5.5 0 0 1-.193.207.934.934 0 0 1-.3.1 2.379 2.379 0 0 1-.4.031 1.821 1.821 0 0 1-.319-.031 2.351 2.351 0 0 1-.314-.079 1.6 1.6 0 0 1-.259-.107.423.423 0 0 1-.148-.113 2.494 2.494 0 0 1 .133-.508 1.857 1.857 0 0 1 .238-.442 1.211 1.211 0 0 1 .326-.313.757.757 0 0 1 .407-.118.732.732 0 0 1 .4.108.95.95 0 0 1 .278.271 1.244 1.244 0 0 1 .212.662.718.718 0 0 1-.067.332"/><path data-name="Path 511" d="M81.847 5.366a1.431 1.431 0 0 0 .491.35 1.8 1.8 0 0 0 .74.136c.054 0 .111 0 .176-.006s.13-.014.2-.026a2 2 0 0 0 .206-.048 1.389 1.389 0 0 0 .2-.074 1.167 1.167 0 0 1-.2.421 1.344 1.344 0 0 1-.38.334 2.154 2.154 0 0 1-.562.236 3.927 3.927 0 0 1-.752.125l.071.661a5.234 5.234 0 0 0 1.014-.191 2.27 2.27 0 0 0 .794-.409 1.8 1.8 0 0 0 .521-.69 2.6 2.6 0 0 0 .185-1.045v-.643a2.756 2.756 0 0 0-.062-.626 1.8 1.8 0 0 0-.171-.464 1.234 1.234 0 0 0-.25-.319 1.234 1.234 0 0 0-.624-.3 1.826 1.826 0 0 0-.99.094 1.489 1.489 0 0 0-.845.844 1.693 1.693 0 0 0-.117.624 1.749 1.749 0 0 0 .089.535 1.327 1.327 0 0 0 .274.484m.377-1.431a.877.877 0 0 1 .178-.285.81.81 0 0 1 .594-.248.983.983 0 0 1 .313.051.606.606 0 0 1 .276.2 1.1 1.1 0 0 1 .2.4 2.456 2.456 0 0 1 .074.666v.332a.755.755 0 0 1-.115.041c-.05.013-.106.026-.166.037a1.646 1.646 0 0 1-.189.027 1.713 1.713 0 0 1-.2.01 1.409 1.409 0 0 1-.47-.07.9.9 0 0 1-.319-.189.728.728 0 0 1-.182-.276.96.96 0 0 1-.056-.329.971.971 0 0 1 .064-.363"/><path data-name="Path 512" d="M89.359 5.148h-1.285V1.832h-.69v3.316h-1.7v.689h4.368V.341h-.69Z"/><path data-name="Path 513" d="M87.312.519a.546.546 0 0 0 .027.182.77.77 0 0 0 .064.143.771.771 0 0 0 .079.105.667.667 0 0 0 .078.065h-.434v.321h1.187v-.32h-.111a.759.759 0 0 1-.25-.037.506.506 0 0 1-.175-.094.407.407 0 0 1-.1-.131.327.327 0 0 1-.035-.145.234.234 0 0 1 .108-.218.512.512 0 0 1 .271-.064c.05 0 .093 0 .134.007a.726.726 0 0 1 .092.016l.05-.326a1.348 1.348 0 0 0-.171-.024h-.139a.93.93 0 0 0-.3.044.637.637 0 0 0-.21.118.437.437 0 0 0-.126.166.5.5 0 0 0-.04.191"/><path data-name="Rectangle 14473" d="M91.349.345h.69v5.499h-.69z"/><path data-name="Path 514" d="M95.337 5.311a1.318 1.318 0 0 0 .423.205 1.727 1.727 0 0 0 .462.063 1.916 1.916 0 0 0 .52-.072 2.248 2.248 0 0 0 .541-.246.735.735 0 0 0 .094.22.591.591 0 0 0 .179.184.953.953 0 0 0 .3.127 1.759 1.759 0 0 0 .437.048h1.348a.724.724 0 0 0 .405-.105.826.826 0 0 0 .255-.258 1.613 1.613 0 0 0 .45.26 1.834 1.834 0 0 0 .663.1h.341a1.394 1.394 0 0 0 .282-.026.781.781 0 0 0 .232-.09.77.77 0 0 0 .2-.161 1.277 1.277 0 0 0 .169-.252 1.588 1.588 0 0 0 .224.2 1.769 1.769 0 0 0 .311.182 2.031 2.031 0 0 0 .391.131 1.933 1.933 0 0 0 .464.052 1.425 1.425 0 0 0 1.16-.532 1.523 1.523 0 0 0 .214.193 1.444 1.444 0 0 0 .269.158 1.528 1.528 0 0 0 .339.1 2.2 2.2 0 0 0 .426.039h1.98V2.882h-.69v2.27h-1.29a2.242 2.242 0 0 1-.587-.067 1.271 1.271 0 0 1-.424-.2 1.448 1.448 0 0 0 .077-.447 1.7 1.7 0 0 0-.039-.349 1.8 1.8 0 0 0-.119-.363 1.853 1.853 0 0 0-.2-.34 1.354 1.354 0 0 0-.287-.29 1.3 1.3 0 0 0-.376-.2 1.511 1.511 0 0 0-.725-.047 1.14 1.14 0 0 0-.293.1 1.586 1.586 0 0 0-.309.2 1.9 1.9 0 0 0-.308.337 3.214 3.214 0 0 0-.29.505 4.436 4.436 0 0 0-.248.708.558.558 0 0 1-.25.346.835.835 0 0 1-.424.109h-.218a2.268 2.268 0 0 1-.561-.06 1.212 1.212 0 0 1-.406-.178V2.885h-.69V4.72a.6.6 0 0 1-.071.326.22.22 0 0 1-.194.106h-1.036a1 1 0 0 1-.265-.027.321.321 0 0 1-.155-.087.326.326 0 0 1-.073-.167 1.6 1.6 0 0 1-.017-.253V2.247h-.689v.406c-.137.038-.291.081-.458.131s-.343.106-.517.174a4.273 4.273 0 0 0-.509.236 2.041 2.041 0 0 0-.442.313 1.47 1.47 0 0 0-.312.407 1.2 1.2 0 0 0 0 1.041 1.178 1.178 0 0 0 .312.358m7.683-.965a1.87 1.87 0 0 1 .238-.442 1.226 1.226 0 0 1 .327-.313.751.751 0 0 1 .408-.118.721.721 0 0 1 .4.108.96.96 0 0 1 .278.271 1.171 1.171 0 0 1 .162.339 1.234 1.234 0 0 1 .052.322.728.728 0 0 1-.068.332.522.522 0 0 1-.193.207.936.936 0 0 1-.3.1 2.387 2.387 0 0 1-.4.031 1.8 1.8 0 0 1-.318-.031 2.422 2.422 0 0 1-.315-.079 1.586 1.586 0 0 1-.258-.107.435.435 0 0 1-.149-.113 2.524 2.524 0 0 1 .136-.513m-7.342-.38a1.191 1.191 0 0 1 .35-.3 2.632 2.632 0 0 1 .538-.232 6.28 6.28 0 0 1 .7-.172v1.419a1.5 1.5 0 0 1-.411.191 1.707 1.707 0 0 1-.5.07 1.26 1.26 0 0 1-.285-.032.818.818 0 0 1-.256-.1.509.509 0 0 1-.187-.182.527.527 0 0 1-.072-.284.6.6 0 0 1 .126-.372"/><path data-name="Path 515" d="M97.689.941a.385.385 0 0 0-.158-.034.379.379 0 0 0-.16.034.366.366 0 0 0-.128.087.381.381 0 0 0-.087.13.411.411 0 0 0-.031.158.4.4 0 0 0 .407.407.4.4 0 0 0 .158-.033.451.451 0 0 0 .132-.086.462.462 0 0 0 .087-.129.4.4 0 0 0 0-.318.4.4 0 0 0-.218-.217"/><path data-name="Path 516" d="M96.599.941a.385.385 0 0 0-.16-.034.378.378 0 0 0-.157.034.363.363 0 0 0-.129.087.434.434 0 0 0-.085.13.408.408 0 0 0 .082.446.414.414 0 0 0 .579 0 .417.417 0 0 0 .089-.129.409.409 0 0 0 0-.318.4.4 0 0 0-.089-.13A.386.386 0 0 0 96.6.94"/><path data-name="Path 517" d="M99.676 6.612a.387.387 0 0 0-.158-.032.4.4 0 0 0-.16.032.434.434 0 0 0-.128.089.439.439 0 0 0-.087.13.4.4 0 0 0-.031.159.387.387 0 0 0 .116.288.4.4 0 0 0 .29.118.429.429 0 0 0 .158-.032.434.434 0 0 0 .13-.088.4.4 0 0 0 .088-.445.4.4 0 0 0-.088-.13.453.453 0 0 0-.13-.089"/><path data-name="Path 518" d="M100.768 6.612a.4.4 0 0 0-.16-.032.408.408 0 0 0-.159.032.416.416 0 0 0-.214.219.391.391 0 0 0-.033.159.383.383 0 0 0 .117.288.388.388 0 0 0 .288.118.445.445 0 0 0 .16-.032.411.411 0 0 0 .129-.088.368.368 0 0 0 .089-.128.418.418 0 0 0 0-.318.386.386 0 0 0-.089-.13.428.428 0 0 0-.129-.089"/><path data-name="Path 519" d="M108.607 6.612a.408.408 0 0 0-.162-.032.4.4 0 0 0-.158.032.434.434 0 0 0-.128.089.45.45 0 0 0-.086.13.4.4 0 0 0 .372.565.453.453 0 0 0 .162-.032.448.448 0 0 0 .129-.088.419.419 0 0 0 .088-.128.422.422 0 0 0 0-.318.443.443 0 0 0-.088-.13.469.469 0 0 0-.129-.089"/><path data-name="Path 520" d="M107.515 6.612a.417.417 0 0 0-.319 0 .436.436 0 0 0-.127.089.407.407 0 0 0-.119.289.4.4 0 0 0 .406.406.448.448 0 0 0 .159-.032.406.406 0 0 0 .129-.088.384.384 0 0 0 .089-.128.4.4 0 0 0 0-.318.4.4 0 0 0-.089-.13.422.422 0 0 0-.129-.089"/><path data-name="Path 521" d="M111.766 5.024a.825.825 0 0 1-.274.1 2.571 2.571 0 0 1-.446.032h-1.305v.689h1.393a2.087 2.087 0 0 0 .658-.091 1.17 1.17 0 0 0 .445-.252.985.985 0 0 0 .253-.387 1.462 1.462 0 0 0 .08-.5 1.492 1.492 0 0 0-.119-.572 2.974 2.974 0 0 0-.311-.569 4.813 4.813 0 0 0-.436-.537 7.33 7.33 0 0 0-.495-.477l-.511.5c.15.121.3.253.448.4a4.083 4.083 0 0 1 .4.434 2.352 2.352 0 0 1 .289.445.979.979 0 0 1 .107.428.466.466 0 0 1-.039.2.327.327 0 0 1-.135.153"/><path data-name="Path 522" d="M113.679 4.731a1.633 1.633 0 0 0 .058.44.971.971 0 0 0 .178.352.834.834 0 0 0 .305.233 1.037 1.037 0 0 0 .434.085h1.6a2.093 2.093 0 0 0 .658-.09 1.162 1.162 0 0 0 .443-.252.982.982 0 0 0 .253-.387 1.511 1.511 0 0 0 .081-.5 1.307 1.307 0 0 0-.089-.48 1.8 1.8 0 0 0-.247-.439 2.54 2.54 0 0 0-.379-.393 4.068 4.068 0 0 0-.487-.338l1.166-2.045-.5-.353-1.528 2.627q.313.179.577.36a3.367 3.367 0 0 1 .456.368 1.6 1.6 0 0 1 .3.371.762.762 0 0 1 .107.374.532.532 0 0 1-.037.2.347.347 0 0 1-.139.154.806.806 0 0 1-.273.1 2.576 2.576 0 0 1-.446.032h-1.408a.5.5 0 0 1-.195-.032.242.242 0 0 1-.118-.112.582.582 0 0 1-.062-.214 3 3 0 0 1-.017-.343V.341h-.69Z"/><path data-name="Path 523" d="M122.434 5.148h-1.286V1.832h-.69v3.316h-1.7v.689h4.36V.341h-.688Z"/><path data-name="Path 524" d="M120.386.519a.556.556 0 0 0 .026.182.75.75 0 0 0 .065.143.715.715 0 0 0 .08.105.894.894 0 0 0 .075.065h-.434v.321h1.186v-.32h-.111a.768.768 0 0 1-.251-.037.519.519 0 0 1-.174-.094.4.4 0 0 1-.1-.131.318.318 0 0 1-.036-.145.234.234 0 0 1 .109-.218.5.5 0 0 1 .271-.064.81.81 0 0 1 .134.007.715.715 0 0 1 .092.016l.05-.326a1.346 1.346 0 0 0-.164-.024h-.14a.911.911 0 0 0-.3.044.65.65 0 0 0-.213.118.445.445 0 0 0-.124.166.474.474 0 0 0-.04.191"/><path data-name="Rectangle 14474" d="M124.423.345h.69v5.499h-.69z"/><path data-name="Path 525" d="m36.676 35.752-3.845.6s.644 1.593.675 1.661a21.7 21.7 0 0 0 5.208 6.831 16.975 16.975 0 0 0 7.865 3.545 37.982 37.982 0 0 0 5.388.768c.307.016.623.025.939.025a19.74 19.74 0 0 0 2.473-.166V27.07a35.6 35.6 0 0 1-18.7 8.682"/><path data-name="Path 526" d="M40.689 55.467c-7.317-1.59-12.67-5.171-19.115-12.8-1.287-1.486-5.059-7.549-5.059-7.549l-1.135-.268A36.539 36.539 0 0 1 0 27.473v28.433h43.31a29.897 29.897 0 0 1-2.623-.444"/><path data-name="Path 527" d="M0 .363v10.236a34.045 34.045 0 0 0 5.441 8.8c5.5 6.536 15.287 9.577 22.045 9.633h.408c6.759-.056 16.543-3.1 22.045-9.633a34.056 34.056 0 0 0 5.441-8.8V.363Z"/></g></g></svg>