<svg data-name="Group 18950" xmlns="http://www.w3.org/2000/svg" width="26.416" height="21.992"><defs><clipPath id="a"><path data-name="Rectangle 14432" fill="#ea1945" d="M0 0h26.415v21.992H0z"/></clipPath></defs><g data-name="Group 16861" clip-path="url(#a)"><path data-name="Path 383" d="M26.4 11.059c0-.023.012-.041.012-.061s-.012-.041-.012-.064a1.482 1.482 0 0 0-.038-.228 1.477 1.477 0 0 0-.018-.155c-.006-.02-.026-.038-.032-.058-.015-.038-.029-.076-.047-.111a1.076 1.076 0 0 0-.128-.2 1.188 1.188 0 0 0-.117-.172 1.079 1.079 0 0 0-.082-.082 1.459 1.459 0 0 0-.19-.131 1.383 1.383 0 0 0-.175-.114c-.038-.02-.076-.032-.117-.05-.02-.009-.035-.026-.058-.032-4.674-1.494-7.478-4.278-8.57-8.511A1.46 1.46 0 0 0 14 1.824a13.948 13.948 0 0 0 4.963 7.715H1.459a1.459 1.459 0 0 0 0 2.918h17.507A13.931 13.931 0 0 0 14 20.169a1.46 1.46 0 0 0 1.05 1.777 1.438 1.438 0 0 0 .365.047 1.459 1.459 0 0 0 1.415-1.092c1.091-4.234 3.9-7.017 8.57-8.511.023-.006.038-.023.058-.032a1.542 1.542 0 0 0 .263-.146.841.841 0 0 0 .111-.064 1.065 1.065 0 0 0 .108-.085 1.387 1.387 0 0 0 .172-.219 1.224 1.224 0 0 0 .155-.231c.02-.041.032-.085.05-.128.006-.018.023-.023.029-.041a1.477 1.477 0 0 0 .018-.155 1.482 1.482 0 0 0 .038-.228" fill="#ea1945"/></g></svg>