<svg xmlns="http://www.w3.org/2000/svg" width="21.998" height="26.412"><g data-name="Group 19495"><path data-name="Path 72548" d="M10.934 26.4c.023 0 .041.012.061.012s.041-.012.064-.012a1.466 1.466 0 0 0 .228-.038 1.337 1.337 0 0 0 .155-.018c.02-.006.038-.026.058-.032.038-.015.076-.029.111-.047a1.078 1.078 0 0 0 .2-.128 1.184 1.184 0 0 0 .172-.117 1.058 1.058 0 0 0 .082-.082 8.372 8.372 0 0 0 .245-.365c.02-.038.032-.076.05-.117a.36.36 0 0 0 .032-.058c1.494-4.674 4.278-7.478 8.511-8.57A1.461 1.461 0 1 0 20.169 14a13.947 13.947 0 0 0-7.715 4.963v-17.5a1.459 1.459 0 0 0-2.918 0v17.503A13.929 13.929 0 0 0 1.824 14a1.462 1.462 0 0 0-.732 2.83c4.234 1.091 7.017 3.9 8.511 8.57a.359.359 0 0 0 .032.058 1.572 1.572 0 0 0 .146.263.762.762 0 0 0 .064.111.985.985 0 0 0 .085.108 1.349 1.349 0 0 0 .219.172 1.244 1.244 0 0 0 .231.155c.041.02.085.032.128.05.018.006.023.023.041.029a1.337 1.337 0 0 0 .155.018 1.466 1.466 0 0 0 .228.038" fill="#fff"/></g></svg>