<svg xmlns="http://www.w3.org/2000/svg" width="97.127" height="95.179"><g data-name="Group 19496"><g data-name="Group 19493"><g data-name="Group 16892" fill="#fff"><path data-name="Path 451" d="M24.143 17.229a3.102 3.102 0 0 1-1.928.837 2.101 2.101 0 0 1-1.657-.851l.755-.627q.957 1.107 2.306-.012a1.89 1.89 0 0 0 .681-.929.936.936 0 0 0-.22-.873.77.77 0 0 0-.671-.305 3.316 3.316 0 0 0-1.156.418l-.506.266a3.195 3.195 0 0 1-1.593.467 1.607 1.607 0 0 1-1.205-.645 1.545 1.545 0 0 1-.345-1.39 2.693 2.693 0 0 1 .989-1.448 2.924 2.924 0 0 1 1.834-.817 1.938 1.938 0 0 1 1.48.738l-.747.621a1.246 1.246 0 0 0-.917-.448 1.911 1.911 0 0 0-1.111.536 1.695 1.695 0 0 0-.6.815.778.778 0 0 0 .174.739.8.8 0 0 0 .666.328 2.773 2.773 0 0 0 1.129-.394l.513-.272a3.463 3.463 0 0 1 1.677-.501 1.563 1.563 0 0 1 1.151.617 1.712 1.712 0 0 1 .397 1.531 2.983 2.983 0 0 1-1.1 1.596"/><path data-name="Path 452" d="m30.293 10.737.574.84a1.906 1.906 0 0 0 .597.571l-.866.516a1.533 1.533 0 0 1-.592-.619l-.38-.584a1.338 1.338 0 0 0-.702-.624 1.12 1.12 0 0 0-.843.198l-1.63.975 1.374 2.31-.843.501-3.34-5.613 2.451-1.456a2.56 2.56 0 0 1 1.662-.428 1.6 1.6 0 0 1 1.195.835 1.684 1.684 0 0 1 .265 1.01 1.512 1.512 0 0 1-.405.907 1.208 1.208 0 0 1 .836.042 1.623 1.623 0 0 1 .649.623m-4.262.568 1.627-.967a1.292 1.292 0 0 0 .618-.714 1.07 1.07 0 0 0-.147-.884.948.948 0 0 0-.691-.507 1.516 1.516 0 0 0-.96.263l-1.559.927Z"/><path data-name="Path 453" d="M35.257 10.735a2.978 2.978 0 0 1-2.497-.05 3.45 3.45 0 0 1-1.71-1.983 3.502 3.502 0 0 1-.074-2.626 2.995 2.995 0 0 1 1.82-1.711 3.028 3.028 0 0 1 2.494.04 3.529 3.529 0 0 1 1.705 1.997 3.502 3.502 0 0 1 .075 2.616 3.017 3.017 0 0 1-1.815 1.713m-.318-.822a1.969 1.969 0 0 0 1.224-1.21 2.707 2.707 0 0 0-.116-1.931A2.74 2.74 0 0 0 34.83 5.25a2.172 2.172 0 0 0-2.943 1.136A2.752 2.752 0 0 0 32 8.334a2.694 2.694 0 0 0 1.218 1.506 1.969 1.969 0 0 0 1.72.074"/><path data-name="Path 454" d="m38.985 2.604 1.182 5.523 3.13-.668.185.86-4.09.875-1.37-6.39Z"/><path data-name="Path 455" d="m45.08 1.597.436 5.633 3.192-.248.067.878-4.169.323-.503-6.51Z"/><path data-name="Path 456" d="m53.165 1.455 2.308.313a3.222 3.222 0 0 1 2.246 1.183 3.276 3.276 0 0 1 .524 2.486 3.275 3.275 0 0 1-1.167 2.259 3.218 3.218 0 0 1-2.48.542l-2.308-.311Zm.211 5.748 1.326.177a2.123 2.123 0 0 0 1.718-.392 2.533 2.533 0 0 0 .807-1.685 2.532 2.532 0 0 0-.33-1.84 2.122 2.122 0 0 0-1.548-.839l-1.325-.177Z"/><path data-name="Path 457" d="M61.726 9.97a2.974 2.974 0 0 1-1.918-1.601 3.458 3.458 0 0 1-.087-2.619 3.502 3.502 0 0 1 1.595-2.089 2.989 2.989 0 0 1 2.486-.187 3.025 3.025 0 0 1 1.915 1.596 3.527 3.527 0 0 1 .074 2.625 3.492 3.492 0 0 1-1.583 2.083 3.007 3.007 0 0 1-2.489.195m.269-.838a1.967 1.967 0 0 0 1.712-.174 2.701 2.701 0 0 0 1.121-1.576 2.747 2.747 0 0 0 .006-1.944 2.172 2.172 0 0 0-3.005-.962A2.754 2.754 0 0 0 60.69 6.06a2.694 2.694 0 0 0 .006 1.938 1.965 1.965 0 0 0 1.292 1.135"/><path data-name="Path 458" d="m72.984 11.09 2.137-2.203.89.495-4.777 4.816-.961-.536.761-3.07q.225-.892.604-2.256-.96 1.044-1.597 1.705l-2.204 2.268-.963-.535 1.571-6.599.89.495-.744 2.977q-.418 1.604-.643 2.402 1.527-1.649 1.703-1.833l2.119-2.19.914.508-.74 2.958q-.065.248-.66 2.415.56-.612 1.701-1.814"/><path data-name="Path 459" d="m79.846 15.175 1.286-1.507.718.614-4.239 4.966-.855-.725.527-3.71q.224-1.619.394-2.426-.682.851-2.104 2.522l-1.286 1.506-.726-.62 4.24-4.966.858.733-.52 3.716q-.219 1.514-.4 2.433.688-.862 2.11-2.528"/><path data-name="Path 460" d="M88.475 39.152a3.087 3.087 0 0 1 .12-2.093 2.101 2.101 0 0 1 1.508-1.096l.22.957q-1.424.356-1.031 2.064a1.887 1.887 0 0 0 .524 1.021.93.93 0 0 0 .878.197.768.768 0 0 0 .575-.46 3.294 3.294 0 0 0 .146-1.22l-.007-.573a3.195 3.195 0 0 1 .3-1.63 1.61 1.61 0 0 1 1.12-.786 1.543 1.543 0 0 1 1.394.319 2.691 2.691 0 0 1 .849 1.535 2.922 2.922 0 0 1-.104 2.005 1.933 1.933 0 0 1-1.325.99l-.217-.949a1.244 1.244 0 0 0 .812-.616 1.916 1.916 0 0 0 .022-1.233 1.7 1.7 0 0 0-.453-.903.778.778 0 0 0-.737-.178.8.8 0 0 0-.593.447 2.792 2.792 0 0 0-.16 1.185l.013.58a3.48 3.48 0 0 1-.31 1.724 1.564 1.564 0 0 1-1.069.75 1.713 1.713 0 0 1-1.546-.336 2.97 2.97 0 0 1-.928-1.701"/><path data-name="Path 461" d="M89.39 45.562a2.879 2.879 0 0 1 .787-2.273 3.482 3.482 0 0 1 2.427-1.016 3.524 3.524 0 0 1 2.533.696 2.89 2.89 0 0 1 1.063 2.162 3.046 3.046 0 0 1-.46 1.895 2.715 2.715 0 0 1-1.668 1.106l-.062-.988a1.857 1.857 0 0 0 1.033-.74 1.961 1.961 0 0 0 .287-1.218 1.845 1.845 0 0 0-.776-1.458 3.363 3.363 0 0 0-3.71.229 1.844 1.844 0 0 0-.587 1.544 2.022 2.022 0 0 0 .51 1.236 1.844 1.844 0 0 0 1.295.571l.06.979a2.642 2.642 0 0 1-1.944-.825 2.986 2.986 0 0 1-.79-1.907"/><path data-name="Path 462" d="M89.198 52.492a2.976 2.976 0 0 1 1.203-2.187 3.448 3.448 0 0 1 2.552-.59 3.502 3.502 0 0 1 2.36 1.16 2.983 2.983 0 0 1 .663 2.403 3.023 3.023 0 0 1-1.194 2.188 3.941 3.941 0 0 1-4.91-.567 3.01 3.01 0 0 1-.673-2.404m.874.101a1.965 1.965 0 0 0 .503 1.646 2.701 2.701 0 0 0 1.763.794 2.736 2.736 0 0 0 1.909-.37 2.172 2.172 0 0 0 .357-3.133 2.757 2.757 0 0 0-1.771-.804 2.701 2.701 0 0 0-1.898.376 1.971 1.971 0 0 0-.865 1.49"/><path data-name="Path 463" d="m94.66 59.584-5.44-1.52-.862 3.082-.847-.236 1.125-4.029 6.289 1.758Z"/><path data-name="Path 464" d="m92.721 65.445-5.193-2.224-1.256 2.941-.81-.345 1.645-3.844 6.004 2.569Z"/><path data-name="Path 465" d="m89.11 72.677-1.342 1.903a3.226 3.226 0 0 1-2.088 1.445 3.786 3.786 0 0 1-3.911-2.761 3.228 3.228 0 0 1 .661-2.45l1.344-1.902Zm-5.196-2.47-.773 1.094a2.122 2.122 0 0 0-.445 1.706 3.044 3.044 0 0 0 2.916 2.051 2.122 2.122 0 0 0 1.46-.984l.771-1.093Z"/><path data-name="Path 466" d="M77.595 76.337a2.974 2.974 0 0 1 2.31-.95 3.45 3.45 0 0 1 2.36 1.14A3.502 3.502 0 0 1 83.38 78.9a2.99 2.99 0 0 1-.987 2.29 3.025 3.025 0 0 1-2.302.958 3.944 3.944 0 0 1-3.474-3.517 3.01 3.01 0 0 1 .98-2.298m.618.626a1.968 1.968 0 0 0-.638 1.599 2.701 2.701 0 0 0 .877 1.724 2.733 2.733 0 0 0 1.718.906 2.173 2.173 0 0 0 2.246-2.21 2.755 2.755 0 0 0-.877-1.738 2.701 2.701 0 0 0-1.72-.892 1.971 1.971 0 0 0-1.606.619"/><path data-name="Path 467" d="m71.376 85.783.955 2.915-.853.557-2.04-6.468.922-.603 2.36 2.105q.686.613 1.716 1.585-.475-1.33-.764-2.208l-.98-3.007.92-.602 5.11 4.46-.848.555-2.293-2.04q-1.223-1.117-1.826-1.687.749 2.117.831 2.36l.951 2.895-.874.572-2.272-2.032-1.827-1.705q.28.781.813 2.35"/><path data-name="Path 468" d="M43.664 87.387a3.102 3.102 0 0 1 1.907.88 2.101 2.101 0 0 1 .474 1.8l-.97-.142q.186-1.455-1.547-1.713a1.892 1.892 0 0 0-1.143.115.936.936 0 0 0-.504.746.771.771 0 0 0 .22.704 3.302 3.302 0 0 0 1.082.582l.536.2a3.202 3.202 0 0 1 1.41.876 1.61 1.61 0 0 1 .323 1.327 1.548 1.548 0 0 1-.805 1.184 2.701 2.701 0 0 1-1.74.228 2.914 2.914 0 0 1-1.83-.828 1.938 1.938 0 0 1-.438-1.595l.962.142a1.248 1.248 0 0 0 .277.982 1.923 1.923 0 0 0 1.14.47 1.7 1.7 0 0 0 1.006-.093.78.78 0 0 0 .435-.622.8.8 0 0 0-.2-.715 2.786 2.786 0 0 0-1.046-.581l-.543-.196a3.46 3.46 0 0 1-1.491-.917 1.559 1.559 0 0 1-.31-1.273 1.713 1.713 0 0 1 .875-1.318 2.984 2.984 0 0 1 1.923-.244"/><path data-name="Path 469" d="M37.384 85.916a2.882 2.882 0 0 1 1.835 1.556 3.485 3.485 0 0 1 .067 2.63 3.527 3.527 0 0 1-1.565 2.108 2.89 2.89 0 0 1-2.404.207 3.037 3.037 0 0 1-1.599-1.116 2.71 2.71 0 0 1-.427-1.955l.944.3a1.852 1.852 0 0 0 .316 1.232 1.955 1.955 0 0 0 1.03.708 1.849 1.849 0 0 0 1.64-.194 2.845 2.845 0 0 0 1.097-1.6 2.843 2.843 0 0 0 .03-1.94 1.846 1.846 0 0 0-1.226-1.108 2.021 2.021 0 0 0-1.336.028 1.83 1.83 0 0 0-1.003.994l-.936-.297a2.65 2.65 0 0 1 1.474-1.514 2.978 2.978 0 0 1 2.062-.042"/><path data-name="Path 470" d="m28.261 84.036.407-.934a1.914 1.914 0 0 0 .167-.81l.899.46a1.538 1.538 0 0 1-.21.83l-.293.633a1.346 1.346 0 0 0-.154.925 1.12 1.12 0 0 0 .62.612l1.69.864 1.225-2.392.872.447-2.974 5.815-2.538-1.3a2.562 2.562 0 0 1-1.25-1.178 1.6 1.6 0 0 1 .068-1.455 1.69 1.69 0 0 1 .715-.763 1.52 1.52 0 0 1 .984-.14 1.2 1.2 0 0 1-.41-.73 1.637 1.637 0 0 1 .183-.88m2.75 3.304-1.683-.862a1.282 1.282 0 0 0-.929-.145 1.069 1.069 0 0 0-.67.594.946.946 0 0 0-.058.853 1.512 1.512 0 0 0 .732.674l1.616.827Z"/><path data-name="Path 471" d="M25.611 79.827a2.975 2.975 0 0 1 1.283 2.143 3.459 3.459 0 0 1-.776 2.502 3.509 3.509 0 0 1-2.19 1.452 2.992 2.992 0 0 1-2.41-.637 3.03 3.03 0 0 1-1.289-2.135 3.53 3.53 0 0 1 .789-2.505 3.488 3.488 0 0 1 2.178-1.45 3.012 3.012 0 0 1 2.415.63m-.529.704a1.966 1.966 0 0 0-1.674-.396 2.701 2.701 0 0 0-1.58 1.125 2.738 2.738 0 0 0-.643 1.833 2.173 2.173 0 0 0 2.524 1.894 2.756 2.756 0 0 0 1.589-1.124 2.701 2.701 0 0 0 .63-1.833 1.969 1.969 0 0 0-.85-1.497"/><path data-name="Path 472" d="m16.75 80.984 4.056-3.927-2.226-2.295.632-.61 2.909 3.005-4.689 4.532Z"/><path data-name="Path 473" d="m12.65 76.324 4.55-3.352-1.898-2.576.71-.522 2.48 3.368-5.257 3.874Z"/><path data-name="Path 474" d="m8.317 69.615-.982-2.108a3.217 3.217 0 0 1-.216-2.532 3.276 3.276 0 0 1 1.81-1.783 3.27 3.27 0 0 1 2.53-.235 3.222 3.222 0 0 1 1.797 1.794l.98 2.113Zm4.726-3.278-.564-1.214a2.127 2.127 0 0 0-1.26-1.23 2.541 2.541 0 0 0-1.855.23 2.533 2.533 0 0 0-1.373 1.269 2.123 2.123 0 0 0 .125 1.756l.568 1.215Z"/><path data-name="Path 475" d="M10.923 57.767a2.97 2.97 0 0 1-.343 2.473 3.452 3.452 0 0 1-2.172 1.463 3.509 3.509 0 0 1-2.617-.24 2.989 2.989 0 0 1-1.479-2.008 3.024 3.024 0 0 1 .335-2.47 3.538 3.538 0 0 1 2.183-1.458 3.494 3.494 0 0 1 2.606.235 3.008 3.008 0 0 1 1.487 2.005m-.853.218a1.968 1.968 0 0 0-1.057-1.358 2.701 2.701 0 0 0-1.93-.114 2.742 2.742 0 0 0-1.65 1.028 2.171 2.171 0 0 0 .78 3.056 2.753 2.753 0 0 0 1.943.121 2.69 2.69 0 0 0 1.638-1.034 1.966 1.966 0 0 0 .277-1.698"/><path data-name="Path 476" d="m5.908 47.64-3-.65-.05-1.015 6.614 1.504.052 1.1-3.009.979q-.877.28-2.234.681 1.39.258 2.292.454l3.09.672.052 1.1-6.43 2.16-.05-1.017 2.918-.945q1.582-.494 2.377-.73-2.197-.42-2.448-.473L3.1 50.816l-.053-1.044 2.9-.936q.245-.075 2.398-.717-.817-.152-2.44-.483"/><path data-name="Path 477" d="m5.75 39.646-1.958-.296.139-.938 6.457.974-.169 1.116-3.427 1.514q-1.493.664-2.267.947 1.084.127 3.252.454l1.958.295-.143.94-6.458-.974.17-1.116 3.427-1.526q1.4-.615 2.276-.947-1.093-.128-3.261-.454"/></g></g></g></svg>