<svg xmlns="http://www.w3.org/2000/svg" width="117.476" height="90.956"><path data-name="Path 72552" d="M105.713.706c1.025-.694 3.6-1.3 5.1.367l2.778 3.493c1.343 2.272-.284 4.378-1.337 5.252q-7.511 6.231-10.921 9.64a53.275 53.275 0 0 0-9.924 14.052c-.5 1.069.772 1.748 1.431 1.964q24.629 8.072 24.632 28.459 0 12.011-7.976 19.517T89.51 90.956q-10.7 0-18.954-9.758-8.071-9.192-8.069-19.892.004-31.349 43.226-60.6Zm-62.491 0c1.025-.694 3.6-1.3 5.1.367L51.1 4.566c1.343 2.272-.284 4.378-1.337 5.252q-7.51 6.231-10.921 9.64a53.293 53.293 0 0 0-9.924 14.052c-.5 1.069.772 1.748 1.431 1.964q24.629 8.072 24.632 28.459 0 12.011-7.976 19.517t-19.986 7.506q-10.7 0-18.954-9.758-8.07-9.192-8.069-19.892Q0 29.957 43.222.706Z" fill="#f0f0f0"/></svg>