<svg xmlns="http://www.w3.org/2000/svg" width="39.999" height="39.999"><g data-name="Group 19491"><g data-name="Group 19093"><path data-name="Subtraction 2" d="M39.999 19.998a19.87 19.87 0 0 1-5.856 14.143 19.865 19.865 0 0 1-14.142 5.858 19.869 19.869 0 0 1-14.144-5.858A19.869 19.869 0 0 1 .001 19.998 19.866 19.866 0 0 1 5.857 5.857 19.87 19.87 0 0 1 20.001-.001a19.865 19.865 0 0 1 14.142 5.858 19.867 19.867 0 0 1 5.856 14.141Zm-30.666 0c0 2.9.016 3.249.067 4.4a7.71 7.71 0 0 0 .5 2.589 5.215 5.215 0 0 0 1.217 1.89 5.333 5.333 0 0 0 1.9 1.231 7.9 7.9 0 0 0 2.585.5c1.138.051 1.516.063 4.4.063s3.262-.012 4.4-.063a7.789 7.789 0 0 0 2.583-.5 5.341 5.341 0 0 0 1.9-1.231 5.235 5.235 0 0 0 1.217-1.89 7.819 7.819 0 0 0 .5-2.589v-.011c.048-1.115.065-1.491.065-4.387 0-2.881-.016-3.259-.064-4.381v-.017a7.819 7.819 0 0 0-.5-2.589 5.212 5.212 0 0 0-1.217-1.888 5.323 5.323 0 0 0-1.9-1.231 7.962 7.962 0 0 0-2.583-.5c-1.175-.052-1.524-.063-4.4-.063s-3.264.012-4.4.063a7.99 7.99 0 0 0-2.585.5 5.329 5.329 0 0 0-1.9 1.231 5.179 5.179 0 0 0-1.217 1.888 7.71 7.71 0 0 0-.5 2.589c-.051 1.118-.068 1.497-.068 4.396Zm19.416 0c0 2.817-.016 3.185-.064 4.276v.034a5.84 5.84 0 0 1-.367 1.98 3.494 3.494 0 0 1-.8 1.225 3.349 3.349 0 0 1-1.217.8 5.994 5.994 0 0 1-1.983.367c-1.161.052-1.5.063-4.316.063s-3.158-.011-4.316-.063a5.763 5.763 0 0 1-1.968-.367 3.25 3.25 0 0 1-1.233-.8 3.473 3.473 0 0 1-.8-1.227 5.788 5.788 0 0 1-.367-1.98v-.025c-.051-1.12-.066-1.458-.066-4.285s.015-3.163.066-4.282v-.028a5.788 5.788 0 0 1 .367-1.98 3.475 3.475 0 0 1 .8-1.227 3.252 3.252 0 0 1 1.233-.8 5.8 5.8 0 0 1 1.968-.369c1.016-.044 1.4-.057 3.366-.059h.95c2.856 0 3.193.011 4.316.061a6.03 6.03 0 0 1 1.983.369 3.321 3.321 0 0 1 1.217.8 3.483 3.483 0 0 1 .8 1.227 5.839 5.839 0 0 1 .367 1.98v.033c.048 1.09.064 1.457.064 4.275Zm-4.333-5.69a1.283 1.283 0 0 0 1.285 1.278 1.274 1.274 0 0 0 1.266-1.278 1.275 1.275 0 0 0-1.266-1.28 1.284 1.284 0 0 0-1.285 1.278ZM14.516 20A5.488 5.488 0 0 0 20 25.478 5.487 5.487 0 0 0 25.482 20 5.486 5.486 0 0 0 20 14.524a5.487 5.487 0 0 0-5.484 5.474Zm9.034 0A3.557 3.557 0 0 1 20 23.556 3.557 3.557 0 0 1 16.451 20 3.557 3.557 0 0 1 20 16.444a3.557 3.557 0 0 1 3.55 3.554Z" fill="#fff"/></g></g></svg>