<svg xmlns="http://www.w3.org/2000/svg" width="40" height="40"><g data-name="Group 19095"><path data-name="Subtraction 4" d="M40.001 19.999a19.87 19.87 0 0 1-5.856 14.143 19.864 19.864 0 0 1-14.143 5.859 19.869 19.869 0 0 1-14.144-5.859A19.87 19.87 0 0 1 .001 19.999 19.867 19.867 0 0 1 5.858 5.857 19.869 19.869 0 0 1 20.002 0a19.866 19.866 0 0 1 14.143 5.857 19.867 19.867 0 0 1 5.856 14.142Zm-30 6.269a10.676 10.676 0 0 0 2.7 1.244 11.812 11.812 0 0 0 9.183-1.046 12.245 12.245 0 0 0 4.649-5.479 14.4 14.4 0 0 0 .952-4.239c0-.647.046-.731.831-1.51a9.674 9.674 0 0 0 .968-1.089v-.005a.488.488 0 0 0 .073-.164.03.03 0 0 0-.012-.026c-.043-.031-.2.018-.648.167-.671.241-.98.314-1.068.253a.059.059 0 0 1-.025-.051c0-.079.1-.224.327-.469a4.107 4.107 0 0 0 .95-1.512.009.009 0 0 0 0-.008 1.108 1.108 0 0 0-.444.164 7.143 7.143 0 0 1-1.234.48l-.75.241-.685-.466a5.961 5.961 0 0 0-1.183-.621 4.788 4.788 0 0 0-2.449.055 4.046 4.046 0 0 0-2.742 3.8c0 .088 0 .176.009.263l.049.693-.7-.084a11.4 11.4 0 0 1-6.666-3.277l-.917-.919-.249.678a4.5 4.5 0 0 0-.232 1.418 3.919 3.919 0 0 0 1.1 2.764c.23.24.337.388.337.467a.055.055 0 0 1-.023.048c-.076.053-.333-.005-.831-.19a1.717 1.717 0 0 0-.666-.155.135.135 0 0 0-.018.088 6.192 6.192 0 0 0 .519 1.8 4.559 4.559 0 0 0 1.917 1.808l.682.325-.8.014c-.594 0-.765.006-.765.151a.639.639 0 0 0 .032.159 4.236 4.236 0 0 0 2.617 2.317l.866.3-.75.451a7.923 7.923 0 0 1-3.75 1.046 4.33 4.33 0 0 0-1.155.116Z" fill="#fff"/></g></svg>