<svg xmlns="http://www.w3.org/2000/svg" width="39.999" height="40"><g data-name="Group 19094"><path data-name="Subtraction 5" d="M39.999 20.001a19.875 19.875 0 0 1-5.855 14.141A19.87 19.87 0 0 1 20.001 40a19.868 19.868 0 0 1-14.145-5.858A19.87 19.87 0 0 1 0 20.001 19.873 19.873 0 0 1 5.856 5.858 19.868 19.868 0 0 1 20.001 0a19.867 19.867 0 0 1 14.143 5.858 19.878 19.878 0 0 1 5.855 14.143Zm-30.668-.017a10.328 10.328 0 0 0 .218 2.146 10.456 10.456 0 0 0 .617 2 10.771 10.771 0 0 0 .981 1.81 12.06 12.06 0 0 0 1.3 1.576 10.969 10.969 0 0 0 1.582 1.3 10.679 10.679 0 0 0 1.816.982 10.31 10.31 0 0 0 2 .619 10.774 10.774 0 0 0 2.149.219 10.788 10.788 0 0 0 2.152-.219 10.836 10.836 0 0 0 2-.619 10.665 10.665 0 0 0 1.816-.982 11.006 11.006 0 0 0 1.584-1.3 12.1 12.1 0 0 0 1.3-1.576 10.468 10.468 0 0 0 .981-1.81 10.4 10.4 0 0 0 .617-2 10.206 10.206 0 0 0 .218-2.146 10.17 10.17 0 0 0-.218-2.143 10.337 10.337 0 0 0-.617-2 10.629 10.629 0 0 0-.981-1.81 12.063 12.063 0 0 0-1.3-1.576 10.822 10.822 0 0 0-1.584-1.3 10.489 10.489 0 0 0-1.816-.984 10.831 10.831 0 0 0-2-.621 10.941 10.941 0 0 0-2.152-.215 10.776 10.776 0 0 0-2.149.215 10.315 10.315 0 0 0-2 .621 10.6 10.6 0 0 0-1.816.984 10.868 10.868 0 0 0-1.582 1.3 12.068 12.068 0 0 0-1.3 1.576 10.806 10.806 0 0 0-.981 1.81 10.527 10.527 0 0 0-.617 2 10.289 10.289 0 0 0-.217 2.143Zm19.768-.093h-.012a21.138 21.138 0 0 0-6.32-.291l-.2-.472c-.141-.341-.3-.691-.449-1l-.149-.32a12 12 0 0 0 5.065-3.6 9.036 9.036 0 0 1 2.067 5.683Zm-.1 1.537a9.169 9.169 0 0 1-3.916 6.1 36.872 36.872 0 0 0-1.767-6.5 13.38 13.38 0 0 1 5.675.393h.007Zm-2.982-8.269a9.839 9.839 0 0 1-4.751 3.292 47.9 47.9 0 0 0-3.363-5.235l-.048-.066-.006-.007a9.37 9.37 0 0 1 2.149-.255 9.091 9.091 0 0 1 6.019 2.269Zm-2.469 15.2a8.926 8.926 0 0 1-3.549.722 9.074 9.074 0 0 1-5.6-1.926 9.014 9.014 0 0 1 1.568-2.156 13.92 13.92 0 0 1 5.583-3.527.228.228 0 0 1 .066-.021 37.344 37.344 0 0 1 1.932 6.906Zm-2.565-8.414-.041.012h-.014c-.1.029-.2.06-.295.093a13.645 13.645 0 0 0-5.534 3.579 12.873 12.873 0 0 0-1.882 2.428 9.067 9.067 0 0 1-2.333-6.078c0-.05 0-.1.008-.145s.008-.095.008-.145a32.926 32.926 0 0 0 9.351-1.294c.281.539.528 1.058.733 1.544ZM19.5 17a34.047 34.047 0 0 1-8.406 1.11h-.01a9.164 9.164 0 0 1 5.034-6.352l.029.04a57.529 57.529 0 0 1 3.354 5.2Z" fill="#fff"/></g></svg>