<svg xmlns="http://www.w3.org/2000/svg" width="40" height="40"><g data-name="Group 19096"><path data-name="Subtraction 3" d="M40 20a19.868 19.868 0 0 1-5.856 14.142A19.868 19.868 0 0 1 20 39.999a19.87 19.87 0 0 1-14.144-5.857A19.87 19.87 0 0 1 0 20 19.87 19.87 0 0 1 5.856 5.858 19.868 19.868 0 0 1 20 0a19.868 19.868 0 0 1 14.144 5.858A19.868 19.868 0 0 1 40 20Zm-30.668.334a29.1 29.1 0 0 0 .451 5.272 2.677 2.677 0 0 0 1.884 1.936c1.647.452 8.266.457 8.333.457s6.686-.005 8.333-.457a2.676 2.676 0 0 0 1.884-1.936 29.065 29.065 0 0 0 .452-5.272 29.065 29.065 0 0 0-.452-5.272 2.682 2.682 0 0 0-1.884-1.938c-1.647-.452-8.266-.457-8.333-.457s-6.686.005-8.333.457a2.683 2.683 0 0 0-1.884 1.938 29.1 29.1 0 0 0-.451 5.273Zm14 .332-5.331 3.333v-6.667l5.331 3.331Z" fill="#fff"/></g></svg>