<svg xmlns="http://www.w3.org/2000/svg" width="40" height="40"><path data-name="Subtraction 7" d="M20 40a20.005 20.005 0 0 1-7.787-38.428 20.006 20.006 0 0 1 15.574 36.856A19.881 19.881 0 0 1 20 40Zm.07-30.7h-.027A10.561 10.561 0 0 0 10.9 25.13L9.4 30.6l5.6-1.468a10.556 10.556 0 0 0 15.6-9.27A10.537 10.537 0 0 0 20.07 9.3Zm-.026 19.335a8.765 8.765 0 0 1-4.466-1.223l-.319-.19-3.321.871.886-3.237-.209-.332a8.773 8.773 0 1 1 7.432 4.111ZM16.306 14.98a.96.96 0 0 0-.7.33l-.05.053a2.906 2.906 0 0 0-.873 2.147 5.022 5.022 0 0 0 1.075 2.726l.05.07a11.424 11.424 0 0 0 4.456 3.914 15.311 15.311 0 0 0 1.5.554 3.294 3.294 0 0 0 1.02.156 4.335 4.335 0 0 0 .642-.051 2.739 2.739 0 0 0 1.78-1.254 2.2 2.2 0 0 0 .154-1.254.837.837 0 0 0-.36-.236l-.147-.072c-.3-.15-1.567-.772-1.8-.858a.876.876 0 0 0-.282-.068.366.366 0 0 0-.312.2c-.182.272-.7.884-.834 1.033a.365.365 0 0 1-.284.151.662.662 0 0 1-.287-.084 2.864 2.864 0 0 0-.179-.081 6.794 6.794 0 0 1-1.943-1.229 7.951 7.951 0 0 1-1.467-1.827c-.155-.268-.012-.411.115-.538a3.73 3.73 0 0 0 .259-.3c.046-.056.092-.113.137-.165a1.462 1.462 0 0 0 .224-.361l.039-.08a.482.482 0 0 0-.022-.462 53.552 53.552 0 0 1-.492-1.181c-.123-.3-.241-.588-.321-.778-.173-.417-.348-.452-.513-.452h-.08a47.46 47.46 0 0 0-.505-.003Z" fill="#fff"/></svg>